HIERARCHY
ROOT Hips
{
	OFFSET 0.000000 89.005402 0.000000
	CHANNELS 6 Xposition Yposition Zposition Xrotation Yrotation Zrotation
	JOINT Spine
	{
		OFFSET 0.116900 10.681000 0.373400
		CHANNELS 3 Xrotation Yrotation Zrotation
		JOINT Spine1
		{
			OFFSET 0.000000 13.840401 0.053500
			CHANNELS 3 Xrotation Yrotation Zrotation
			JOINT Spine2
			{
				OFFSET 0.000000 14.712700 -0.366200
				CHANNELS 3 Xrotation Yrotation Zrotation
				JOINT Neck
				{
					OFFSET 0.000000 35.415497 -3.314200
					CHANNELS 3 Xrotation Yrotation Zrotation
					JOINT Head
					{
						OFFSET 0.000000 16.899200 1.218300
						CHANNELS 3 Xrotation Yrotation Zrotation
						JOINT HeadTop_End
						{
							OFFSET 0.000000 22.206207 2.192500
							CHANNELS 3 Xrotation Yrotation Zrotation
							End Site
							{
								OFFSET 0.000000 22.314178 0.000000
							}
						}
					}
				}
				JOINT LeftShoulder
				{
					OFFSET 12.896400 26.716293 -4.548400
					CHANNELS 3 Xrotation Yrotation Zrotation
					JOINT LeftArm
					{
						OFFSET 19.027000 -4.857010 -1.718400
						CHANNELS 3 Xrotation Yrotation Zrotation
						JOINT LeftForeArm
						{
							OFFSET 24.179897 0.000000 0.000000
							CHANNELS 3 Xrotation Yrotation Zrotation
							JOINT LeftHand
							{
								OFFSET 27.156403 0.000000 0.000000
								CHANNELS 3 Xrotation Yrotation Zrotation
								JOINT LeftHandIndex1
								{
									OFFSET 16.441200 0.000000 0.000000
									CHANNELS 3 Xrotation Yrotation Zrotation
									JOINT LeftHandIndex2
									{
										OFFSET 4.821899 0.000000 0.000000
										CHANNELS 3 Xrotation Yrotation Zrotation
										JOINT LeftHandIndex3
										{
											OFFSET 6.386497 0.000000 0.000000
											CHANNELS 3 Xrotation Yrotation Zrotation
											JOINT LeftHandIndex4
											{
												OFFSET 5.188988 0.000000 0.000000
												CHANNELS 3 Xrotation Yrotation Zrotation
												End Site
												{
													OFFSET -0.178703 5.185913 0.000177
												}
											}
										}
									}
								}
								JOINT LeftHandThumb1
								{
									OFFSET 6.534897 -5.032593 5.900300
									CHANNELS 3 Xrotation Yrotation Zrotation
									JOINT LeftHandThumb2
									{
										OFFSET 3.818176 -2.204422 2.204423
										CHANNELS 3 Xrotation Yrotation Zrotation
										JOINT LeftHandThumb3
										{
											OFFSET 3.252098 -1.877594 1.877601
											CHANNELS 3 Xrotation Yrotation Zrotation
											JOINT LeftHandThumb4
											{
												OFFSET 5.251778 -3.032120 3.032117
												CHANNELS 3 Xrotation Yrotation Zrotation
												End Site
												{
													OFFSET 0.000023 6.780014 0.000000
												}
											}
										}
									}
								}
							}
						}
					}
				}
				JOINT RightShoulder
				{
					OFFSET -12.896300 26.716293 -4.548400
					CHANNELS 3 Xrotation Yrotation Zrotation
					JOINT RightArm
					{
						OFFSET -19.027000 -4.857010 -1.718400
						CHANNELS 3 Xrotation Yrotation Zrotation
						JOINT RightForeArm
						{
							OFFSET -24.179897 0.000000 0.000000
							CHANNELS 3 Xrotation Yrotation Zrotation
							JOINT RightHand
							{
								OFFSET -27.156403 0.000000 0.000000
								CHANNELS 3 Xrotation Yrotation Zrotation
								JOINT RightHandThumb1
								{
									OFFSET -6.591202 -4.852203 5.988100
									CHANNELS 3 Xrotation Yrotation Zrotation
									JOINT RightHandThumb2
									{
										OFFSET -3.818176 -2.204422 2.204423
										CHANNELS 3 Xrotation Yrotation Zrotation
										JOINT RightHandThumb3
										{
											OFFSET -3.252098 -1.877594 1.877601
											CHANNELS 3 Xrotation Yrotation Zrotation
											JOINT RightHandThumb4
											{
												OFFSET -5.251778 -3.032120 3.032117
												CHANNELS 3 Xrotation Yrotation Zrotation
												End Site
												{
													OFFSET -0.000023 6.780014 0.000000
												}
											}
										}
									}
								}
								JOINT RightHandIndex1
								{
									OFFSET -16.029404 0.000000 0.000000
									CHANNELS 3 Xrotation Yrotation Zrotation
									JOINT RightHandIndex2
									{
										OFFSET -5.213303 0.000000 0.000000
										CHANNELS 3 Xrotation Yrotation Zrotation
										JOINT RightHandIndex3
										{
											OFFSET -6.386528 0.000000 0.000000
											CHANNELS 3 Xrotation Yrotation Zrotation
											JOINT RightHandIndex4
											{
												OFFSET -5.189026 0.000000 0.000000
												CHANNELS 3 Xrotation Yrotation Zrotation
												End Site
												{
													OFFSET 0.236702 5.183624 0.001972
												}
											}
										}
									}
								}
							}
						}
					}
				}
			}
		}
	}
	JOINT LeftUpLeg
	{
		OFFSET 14.073000 -7.904099 -1.463000
		CHANNELS 3 Xrotation Yrotation Zrotation
		JOINT LeftLeg
		{
			OFFSET -0.109806 -34.073280 4.093200
			CHANNELS 3 Xrotation Yrotation Zrotation
			JOINT LeftFoot
			{
				OFFSET 0.109806 -29.899420 -6.319000
				CHANNELS 3 Xrotation Yrotation Zrotation
				JOINT LeftToeBase
				{
					OFFSET 1.551100 -14.988700 20.535801
					CHANNELS 3 Xrotation Yrotation Zrotation
					JOINT LeftToe_End
					{
						OFFSET 0.221200 0.570800 13.248301
						CHANNELS 3 Xrotation Yrotation Zrotation
						End Site
						{
							OFFSET 0.000000 13.262435 0.000000
						}
					}
				}
			}
		}
	}
	JOINT RightUpLeg
	{
		OFFSET -13.839300 -7.904099 -1.463000
		CHANNELS 3 Xrotation Yrotation Zrotation
		JOINT RightLeg
		{
			OFFSET 0.109694 -34.073219 4.093300
			CHANNELS 3 Xrotation Yrotation Zrotation
			JOINT RightFoot
			{
				OFFSET -0.109694 -29.899384 -6.319200
				CHANNELS 3 Xrotation Yrotation Zrotation
				JOINT RightToeBase
				{
					OFFSET -1.551100 -14.988700 20.535801
					CHANNELS 3 Xrotation Yrotation Zrotation
					JOINT RightToe_End
					{
						OFFSET -0.221200 0.570900 13.248299
						CHANNELS 3 Xrotation Yrotation Zrotation
						End Site
						{
							OFFSET 0.000000 13.262440 0.000000
						}
					}
				}
			}
		}
	}
}
MOTION
Frames: 8
Frame Time: 0.033333
0.243748 50.576828 9.305924 -0.261857 -0.097607 0.377667 10.537375 0.069726 -1.696477 -0.179941 0.147512 -0.811093 -0.180214 0.197632 -0.774373 -3.571714 -1.173776 -1.645233 -18.244610 -4.803448 -9.159483 0.000000 -0.000000 -0.000000 2.222708 -14.845455 -1.125625 -8.832565 -28.201588 -68.203236 -0.002543 -86.260344 -0.002574 -32.338203 15.645486 22.791575 7.128245 -0.147802 -9.743259 0.311316 1.886008 -18.743514 0.114571 1.154125 -11.337654 -0.000000 0.000000 -0.000002 22.368649 -13.190871 31.019202 3.989183 7.446960 -10.253808 -1.010331 23.245171 -2.673993 -0.000000 0.000002 0.000000 2.670398 -0.759318 9.248475 -7.251938 35.762549 64.329119 0.001859 86.782724 -0.001824 -2.792658 0.217132 -16.593323 -21.146986 17.572332 0.108196 0.936251 -13.639880 -0.555352 3.822203 -39.911859 -9.160494 -0.000000 0.000000 -0.000000 0.130732 -3.517265 3.678177 0.536363 -2.171703 27.743274 0.410750 -1.914115 24.220517 0.000001 0.000000 -0.000000 -88.385783 -8.521378 14.742717 83.001142 2.720945 -0.523573 7.403249 -6.749325 -7.907859 -0.103098 0.000005 0.000002 -0.000000 0.000000 0.000000 -89.064390 9.547576 -10.579233 83.061999 -2.650435 -1.095016 8.431297 -0.155299 9.628183 -0.191619 -0.000004 -0.000003 -0.000000 -0.000000 0.000000 
0.237173 50.596169 9.267931 -0.291630 -0.111145 0.385960 10.528498 0.103357 -1.690959 -0.188205 0.203917 -0.806523 -0.188924 0.255904 -0.769703 -3.145288 -1.142624 -1.728827 -18.321028 -4.556876 -9.669086 -0.000000 0.000000 -0.000000 2.299516 -14.515141 -0.834220 -6.960693 -27.969761 -65.386603 0.001442 -86.904076 0.001393 -31.819604 13.272313 20.291392 4.608302 0.390610 -15.080989 0.251282 1.698959 -16.824535 0.208251 1.549702 -15.307540 0.000001 -0.000002 0.000001 18.029480 -10.876200 26.018962 6.611378 5.555224 -10.093037 0.200085 22.526044 -1.923458 0.000002 0.000001 -0.000000 2.596836 -1.272419 8.371322 -8.267067 36.004284 62.089964 -0.973091 89.856056 0.972759 -4.197935 -3.732992 -11.166116 -18.143399 13.790635 -1.923644 2.554230 -12.107443 -0.723914 3.663969 -37.458475 -9.049365 -0.000000 -0.000003 0.000001 0.154803 -3.743440 4.066381 0.545407 -2.188830 27.981195 0.626707 -2.335341 30.041061 0.000000 -0.000000 0.000000 -88.323895 -8.507441 14.749828 82.917301 2.736318 -0.522046 7.457384 -6.751461 -7.906309 -0.103098 0.000006 0.000002 -0.000000 -0.000000 0.000000 -89.022131 9.522459 -10.567706 82.978240 -2.654298 -1.096501 8.493103 -0.152551 9.595601 -0.191619 -0.000004 -0.000003 -0.000000 -0.000000 -0.000000 
0.231826 50.617279 9.230350 -0.316859 -0.117929 0.391746 10.515535 0.133925 -1.681516 -0.205480 0.253140 -0.805435 -0.206597 0.305023 -0.767974 -2.709195 -1.116331 -1.782512 -18.373631 -4.295422 -10.206167 0.000000 0.000000 0.000001 2.373285 -14.144448 -0.490094 -5.364215 -27.214143 -63.053048 0.000005 -87.628602 -0.000042 -31.061716 10.926509 17.168411 2.424410 1.229010 -19.252970 0.195510 1.502289 -14.828201 0.311634 1.887044 -18.754048 0.000002 -0.000001 -0.000000 14.034163 -8.243343 21.641108 9.113903 3.727087 -9.559051 1.324995 21.623655 -0.948845 0.000001 0.000000 0.000000 2.521120 -1.726139 7.587311 -9.771543 35.791971 60.102202 0.001257 92.950617 -0.001201 -4.626982 -7.324737 -6.948672 -15.674844 9.719297 -3.719831 4.281656 -10.545339 -1.059762 3.342766 -34.675583 -8.980328 -0.000002 -0.000001 0.000001 0.170212 -3.877159 4.343065 0.510569 -2.121988 27.054760 0.862498 -2.701910 35.402288 -0.000000 -0.000001 -0.000000 -88.267184 -8.491050 14.751026 82.829335 2.749623 -0.520188 7.513918 -6.754053 -7.899928 -0.103098 0.000005 0.000002 -0.000000 0.000000 -0.000000 -88.977605 9.500001 -10.560425 82.893423 -2.663098 -1.097735 8.551956 -0.149861 9.568334 -0.191619 -0.000004 -0.000003 -0.000000 0.000001 0.000000 
0.228450 50.635826 9.200451 -0.330932 -0.115618 0.395672 10.500972 0.157475 -1.668043 -0.225789 0.286430 -0.809691 -0.227206 0.334099 -0.771341 -2.296974 -1.097174 -1.805355 -18.411122 -4.036993 -10.752723 0.000000 -0.000001 0.000001 2.440970 -13.737379 -0.049703 -4.200689 -25.905762 -61.419383 0.000981 -88.393125 0.000980 -30.096160 8.766263 13.504951 0.676795 2.057892 -21.827007 0.150012 1.318622 -12.980575 0.391972 2.108737 -21.057863 -0.000001 0.000000 -0.000000 10.285964 -5.974600 18.067773 11.368488 2.114388 -8.683395 2.340643 20.578629 0.187554 -0.000001 -0.000001 -0.000001 2.450490 -2.107236 6.927116 -11.775280 35.256183 58.498931 -0.000139 95.713114 0.000154 -4.538270 -10.175007 -4.545691 -13.867513 5.754673 -5.226845 6.051062 -9.041405 -1.543966 3.038833 -31.878579 -9.028369 -0.000002 -0.000001 0.000000 0.171088 -3.834207 4.680244 0.429595 -1.955441 24.778760 1.071562 -2.973918 39.622996 -0.000001 -0.000003 -0.000000 -88.227746 -8.475159 14.745028 82.752017 2.759766 -0.518353 7.563997 -6.756693 -7.891858 -0.103098 0.000005 0.000002 -0.000000 -0.000000 -0.000000 -88.941685 9.486540 -10.558842 82.823434 -2.672353 -1.098320 8.597168 -0.148128 9.553540 -0.191619 -0.000006 -0.000003 0.000000 -0.000001 0.000000 
0.230978 50.654900 9.179817 -0.326620 -0.093502 0.391484 10.475054 0.168540 -1.650521 -0.258996 0.297868 -0.829687 -0.260620 0.338751 -0.790384 -1.940425 -1.088189 -1.745337 -18.389011 -3.737954 -11.374021 0.000000 -0.000000 0.000000 2.496864 -13.213998 0.580657 -4.085213 -23.544728 -61.101322 0.018769 -89.239618 0.018916 -28.340869 7.058669 8.693600 -0.292097 2.231766 -20.764690 0.116308 1.162845 -11.424410 0.382195 2.083144 -20.790230 0.000001 -0.000000 -0.000002 6.900906 -5.244150 15.634972 13.075038 0.948835 -7.196057 3.065711 19.126842 1.710233 0.000001 -0.000001 0.000001 2.410140 -2.336261 6.543276 -15.218435 33.799061 57.882001 0.000226 97.776712 -0.000247 -4.725761 -11.421787 -6.607066 -13.237784 2.174650 -6.609907 7.976176 -7.623902 -2.258190 2.725813 -28.952950 -9.346697 -0.000001 0.000001 -0.000001 0.132832 -3.395629 5.111318 0.262544 -1.543102 19.310449 1.163271 -3.081173 41.359258 0.000001 -0.000002 0.000000 -88.215178 -8.455375 14.721798 82.686427 2.763481 -0.515956 7.604666 -6.759581 -7.871339 -0.103098 0.000005 0.000002 0.000000 0.000000 -0.000000 -88.908702 9.486844 -10.571005 82.760767 -2.688398 -1.097851 8.628330 -0.147020 9.562874 -0.191619 -0.000005 -0.000003 0.000000 -0.000000 -0.000000 
0.232248 50.684914 9.148410 -0.349185 -0.086626 0.378216 10.416371 0.165762 -1.640585 -0.333455 0.282031 -0.815875 -0.334876 0.324092 -0.776041 -1.574296 -1.079512 -1.651024 -18.238048 -3.345430 -12.211131 0.000001 -0.000000 0.000000 2.515641 -12.812233 0.892368 -5.239636 -19.711108 -61.887641 -3.273060 -90.026668 -3.287554 -26.092716 5.481427 3.755143 -0.359489 1.453941 -14.624197 0.081999 0.977811 -9.587456 0.262867 1.736822 -17.211272 -0.000001 0.000001 0.000001 3.930327 -6.586139 15.174177 13.751999 0.181130 -4.588943 3.663726 16.831408 4.124143 0.000001 -0.000001 0.000000 2.377982 -2.279019 6.388040 -21.012081 30.572579 58.718897 0.000092 98.937633 -0.000141 -3.879448 -10.572840 -14.717190 -14.497406 -1.081849 -8.375307 10.108417 -6.311346 -3.339625 2.201466 -25.498522 -9.864987 0.000000 0.000000 -0.000000 0.089906 -2.711306 5.370646 0.094975 -0.936651 11.577504 1.030942 -2.924241 38.833672 0.000001 -0.000000 -0.000003 -88.163576 -8.423778 14.721721 82.595046 2.765351 -0.513174 7.658317 -6.763678 -7.840970 -0.103098 0.000006 0.000002 -0.000000 0.000000 0.000000 -88.835537 9.462565 -10.569840 82.671975 -2.710082 -1.098653 8.667309 -0.144561 9.556226 -0.191619 -0.000004 -0.000003 -0.000000 -0.000000 -0.000000 
0.236066 50.715935 9.101888 -0.391170 -0.076985 0.373701 10.341531 0.170197 -1.630970 -0.425947 0.264572 -0.792907 -0.426847 0.304588 -0.750975 -1.183503 -1.075410 -1.621708 -18.014971 -3.078630 -12.877674 0.000000 0.000000 -0.000002 2.495421 -12.822784 0.806392 -7.091611 -15.442341 -63.128242 -0.377217 -90.208234 -0.377945 -24.900855 3.784454 3.022533 -0.179341 0.554218 -6.676909 0.045545 0.729845 -7.140923 0.134414 1.249062 -12.284518 -0.000000 -0.000001 0.000000 1.555520 -8.374183 16.201863 14.009363 -0.628757 -1.395688 4.215931 14.210423 7.008840 -0.000000 -0.000001 0.000000 2.316685 -1.730318 6.483981 -27.730510 26.261411 60.174165 -0.000004 99.668395 -0.000003 -0.103065 -10.331068 -22.900678 -16.854568 -3.833726 -10.314359 12.054887 -5.229152 -4.620780 1.642621 -22.056629 -10.332262 -0.000000 -0.000000 0.000000 0.369644 -2.114343 5.351020 0.025191 -0.484216 5.954933 0.700221 -2.457925 31.798427 -0.000000 -0.000001 -0.000002 -88.089045 -8.382643 14.708925 82.480879 2.775779 -0.511129 7.730712 -6.767216 -7.815314 -0.103098 0.000006 0.000002 -0.000000 -0.000000 0.000000 -88.748015 9.446229 -10.581096 82.559932 -2.719545 -1.100124 8.734342 -0.140949 9.540355 -0.191619 -0.000004 -0.000003 -0.000000 0.000001 0.000000 
0.238455 50.755959 9.027102 -0.483345 -0.098285 0.383481 10.274422 0.180082 -1.604378 -0.495759 0.240437 -0.783433 -0.496108 0.283640 -0.742822 -0.936862 -1.043397 -1.649302 -17.468118 -2.803058 -13.446704 -0.000000 -0.000000 0.000002 2.422926 -12.898415 0.361910 -9.891137 -10.971102 -65.091737 -0.095111 -89.626077 -0.095063 -24.656985 2.956804 4.455539 0.154534 -0.242630 1.972492 0.017403 0.451911 -4.414397 0.040536 0.688654 -6.736029 -0.000000 -0.000000 0.000002 0.637864 -9.916160 18.244453 14.367631 -1.503782 1.914906 4.358400 11.582984 9.930676 -0.000000 -0.000001 -0.000001 2.203047 -0.386464 7.023305 -34.876770 21.210492 61.673173 0.000571 100.357042 -0.000589 4.514475 -10.882943 -30.476611 -19.483782 -5.849337 -11.871335 13.787237 -4.438995 -5.920636 1.120299 -18.819726 -10.725128 0.000000 -0.000000 0.000001 0.766961 -1.351131 4.656561 0.004489 -0.204883 2.515825 0.341831 -1.752982 22.067148 0.000001 -0.000001 -0.000001 -87.945475 -8.342285 14.715193 82.334358 2.802167 -0.507897 7.824691 -6.773174 -7.779206 -0.103098 0.000006 0.000002 -0.000000 0.000001 0.000000 -88.617859 9.398192 -10.572830 82.398548 -2.717289 -1.103196 8.842085 -0.135967 9.494349 -0.191619 -0.000003 -0.000003 0.000000 0.000000 0.000000 
